<?xml version="1.0" encoding="UTF-8" standalone="no"?>
<!-- Created with Inkscape (http://www.inkscape.org/) -->

<svg
   width="70.422813mm"
   height="86.764473mm"
   viewBox="0 0 70.422815 86.764462"
   version="1.1"
   id="svg8"
   inkscape:version="1.1 (c68e22c387, 2021-05-23)"
   sodipodi:docname="acorn.svg"
   xmlns:inkscape="http://www.inkscape.org/namespaces/inkscape"
   xmlns:sodipodi="http://sodipodi.sourceforge.net/DTD/sodipodi-0.dtd"
   xmlns:xlink="http://www.w3.org/1999/xlink"
   xmlns="http://www.w3.org/2000/svg"
   xmlns:svg="http://www.w3.org/2000/svg"
   xmlns:rdf="http://www.w3.org/1999/02/22-rdf-syntax-ns#"
   xmlns:cc="http://creativecommons.org/ns#"
   xmlns:dc="http://purl.org/dc/elements/1.1/">
  <defs
     id="defs2">
    <inkscape:path-effect
       effect="skeletal"
       id="path-effect4115"
       is_visible="true"
       pattern="m 97.737597,5.8396425 c 0,-2.76 2.24,-5 5.000003,-5 2.76,0 5,2.24 5,5 0,2.76 -2.24,5.0000005 -5,5.0000005 -2.760003,0 -5.000003,-2.2400005 -5.000003,-5.0000005 z"
       copytype="single_stretched"
       prop_scale="-1.309096"
       scale_y_rel="false"
       spacing="0"
       normal_offset="0"
       tang_offset="0"
       prop_units="false"
       vertical_pattern="false"
       fuse_tolerance="0"
       lpeversion="0"
       hide_knot="false" />
    <inkscape:path-effect
       effect="skeletal"
       id="path-effect4111"
       is_visible="true"
       pattern="m 87.563367,-75.12413 c 0.83215,-3.060374 3.8041,-4.919689 6.63381,-4.150256 2.82972,0.769432 4.45093,3.877681 3.61877,6.938056 -0.83215,3.060374 -3.8041,4.919689 -6.63381,4.150257 -2.82971,-0.769433 -4.45092,-3.877682 -3.61877,-6.938057 z"
       copytype="single_stretched"
       prop_scale="-2.13863"
       scale_y_rel="false"
       spacing="0"
       normal_offset="0"
       tang_offset="0"
       prop_units="false"
       vertical_pattern="false"
       fuse_tolerance="0"
       lpeversion="0"
       hide_knot="false" />
    <inkscape:path-effect
       effect="skeletal"
       id="path-effect4107"
       is_visible="true"
       pattern="m 87.563367,-75.12413 c 0.83215,-3.060374 3.8041,-4.919689 6.63381,-4.150256 2.82972,0.769432 4.45093,3.877681 3.61877,6.938056 -0.83215,3.060374 -3.8041,4.919689 -6.63381,4.150257 -2.82971,-0.769433 -4.45092,-3.877682 -3.61877,-6.938057 z"
       copytype="single_stretched"
       prop_scale="-2.13863"
       scale_y_rel="false"
       spacing="0"
       normal_offset="0"
       tang_offset="0"
       prop_units="false"
       vertical_pattern="false"
       fuse_tolerance="0"
       lpeversion="0"
       hide_knot="false" />
    <linearGradient
       inkscape:collect="always"
       id="linearGradient1301">
      <stop
         style="stop-color:#9b3300;stop-opacity:1"
         offset="0"
         id="stop1297" />
      <stop
         id="stop1305"
         offset="0.51262271"
         style="stop-color:#552200;stop-opacity:1" />
      <stop
         style="stop-color:#974000;stop-opacity:1"
         offset="1"
         id="stop1299" />
    </linearGradient>
    <linearGradient
       inkscape:collect="always"
       id="linearGradient1365">
      <stop
         style="stop-color:#aa4400;stop-opacity:1"
         offset="0"
         id="stop1361" />
      <stop
         id="stop1371"
         offset="0.30851513"
         style="stop-color:#aa4400;stop-opacity:1" />
      <stop
         id="stop1369"
         offset="0.6565631"
         style="stop-color:#aa4400;stop-opacity:1" />
      <stop
         style="stop-color:#ffb380;stop-opacity:1"
         offset="1"
         id="stop1363" />
    </linearGradient>
    <inkscape:path-effect
       effect="skeletal"
       id="path-effect1233"
       is_visible="true"
       pattern="M 0,5 C 0,2.24 2.24,0 5,0 7.76,0 10,2.24 10,5 10,7.76 7.76,10 5,10 2.24,10 0,7.76 0,5 Z"
       copytype="single_stretched"
       prop_scale="-2.13863"
       scale_y_rel="false"
       spacing="0"
       normal_offset="0"
       tang_offset="0"
       prop_units="false"
       vertical_pattern="false"
       fuse_tolerance="0"
       lpeversion="0"
       hide_knot="false" />
    <inkscape:path-effect
       effect="skeletal"
       id="path-effect1233-2"
       is_visible="true"
       pattern="M 0,5 C 0,2.24 2.24,0 5,0 7.76,0 10,2.24 10,5 10,7.76 7.76,10 5,10 2.24,10 0,7.76 0,5 Z"
       copytype="single_stretched"
       prop_scale="-2.13863"
       scale_y_rel="false"
       spacing="0"
       normal_offset="0"
       tang_offset="0"
       prop_units="false"
       vertical_pattern="false"
       fuse_tolerance="0"
       lpeversion="0"
       hide_knot="false" />
    <inkscape:path-effect
       effect="skeletal"
       id="path-effect1352"
       is_visible="true"
       pattern="M 0,5 C 0,2.24 2.24,0 5,0 7.76,0 10,2.24 10,5 10,7.76 7.76,10 5,10 2.24,10 0,7.76 0,5 Z"
       copytype="single_stretched"
       prop_scale="-1.9864296"
       scale_y_rel="false"
       spacing="0"
       normal_offset="0"
       tang_offset="0"
       prop_units="false"
       vertical_pattern="false"
       fuse_tolerance="0"
       lpeversion="0"
       hide_knot="false" />
    <inkscape:path-effect
       effect="skeletal"
       id="path-effect1271"
       is_visible="true"
       pattern="M 0,5 C 0,2.24 2.24,0 5,0 7.76,0 10,2.24 10,5 10,7.76 7.76,10 5,10 2.24,10 0,7.76 0,5 Z"
       copytype="single_stretched"
       prop_scale="-2.13863"
       scale_y_rel="false"
       spacing="0"
       normal_offset="0"
       tang_offset="0"
       prop_units="false"
       vertical_pattern="false"
       fuse_tolerance="0"
       lpeversion="0"
       hide_knot="false" />
    <inkscape:path-effect
       effect="skeletal"
       id="path-effect1275"
       is_visible="true"
       pattern="M 0,5 C 0,2.24 2.24,0 5,0 7.76,0 10,2.24 10,5 10,7.76 7.76,10 5,10 2.24,10 0,7.76 0,5 Z"
       copytype="single_stretched"
       prop_scale="-2.13863"
       scale_y_rel="false"
       spacing="0"
       normal_offset="0"
       tang_offset="0"
       prop_units="false"
       vertical_pattern="false"
       fuse_tolerance="0"
       lpeversion="0"
       hide_knot="false" />
    <inkscape:path-effect
       effect="skeletal"
       id="path-effect1329"
       is_visible="true"
       pattern="M 0,5 C 0,2.24 2.24,0 5,0 7.76,0 10,2.24 10,5 10,7.76 7.76,10 5,10 2.24,10 0,7.76 0,5 Z"
       copytype="single_stretched"
       prop_scale="-1.309096"
       scale_y_rel="false"
       spacing="0"
       normal_offset="0"
       tang_offset="0"
       prop_units="false"
       vertical_pattern="false"
       fuse_tolerance="0"
       lpeversion="0"
       hide_knot="false" />
    <filter
       inkscape:collect="always"
       style="color-interpolation-filters:sRGB"
       id="filter2140"
       x="-0.019877804"
       width="1.0397556"
       y="-0.015642504"
       height="1.031285">
      <feGaussianBlur
         inkscape:collect="always"
         stdDeviation="1.8892898"
         id="feGaussianBlur2142" />
    </filter>
    <inkscape:path-effect
       effect="skeletal"
       id="path-effect1233-1"
       is_visible="true"
       pattern="m -2.1227474,1.285189 c 0,-2.76 2.24,-5 5,-5 2.76,0 5,2.24 5,5 0,2.76 -2.24,5 -5,5 -2.76,0 -5,-2.24 -5,-5 z"
       copytype="single_stretched"
       prop_scale="-2.13863"
       scale_y_rel="false"
       spacing="0"
       normal_offset="0"
       tang_offset="0"
       prop_units="false"
       vertical_pattern="false"
       fuse_tolerance="0"
       lpeversion="0"
       hide_knot="false" />
    <inkscape:path-effect
       effect="skeletal"
       id="path-effect1233-2-4"
       is_visible="true"
       pattern="m 703.98941,1.285189 c 0,-2.76 -2.26458,-5 -5.05486,-5 -2.79029,0 -5.05487,2.24 -5.05487,5 0,2.76 2.26458,5 5.05487,5 2.79028,0 5.05486,-2.24 5.05486,-5 z"
       copytype="single_stretched"
       prop_scale="-2.13863"
       scale_y_rel="false"
       spacing="0"
       normal_offset="0"
       tang_offset="0"
       prop_units="false"
       vertical_pattern="false"
       fuse_tolerance="0"
       lpeversion="0"
       hide_knot="false" />
    <inkscape:path-effect
       effect="skeletal"
       id="path-effect1352-7"
       is_visible="true"
       pattern="m -1.7689562,-19.588493 c 0,-2.76 2.24,-5 5,-5 2.76,0 5,2.24 5,5 0,2.76 -2.24,5 -5,5 -2.76,0 -5,-2.24 -5,-5 z"
       copytype="single_stretched"
       prop_scale="-1.9864296"
       scale_y_rel="false"
       spacing="0"
       normal_offset="0"
       tang_offset="0"
       prop_units="false"
       vertical_pattern="false"
       fuse_tolerance="0"
       lpeversion="0"
       hide_knot="false" />
    <inkscape:path-effect
       effect="skeletal"
       id="path-effect1271-5"
       is_visible="true"
       pattern="m -10.174232,-75.963773 c 0.8321521,-3.060374 3.8041008,-4.919689 6.6338143,-4.150256 2.82971346,0.769432 4.45092276,3.877681 3.61877075,6.938056 -0.83215201,3.060374 -3.80410075,4.919689 -6.63381425,4.150257 -2.8297135,-0.769433 -4.4509228,-3.877682 -3.6187708,-6.938057 z"
       copytype="single_stretched"
       prop_scale="-2.13863"
       scale_y_rel="false"
       spacing="0"
       normal_offset="0"
       tang_offset="0"
       prop_units="false"
       vertical_pattern="false"
       fuse_tolerance="0"
       lpeversion="0"
       hide_knot="false" />
    <inkscape:path-effect
       effect="skeletal"
       id="path-effect1275-3"
       is_visible="true"
       pattern="m -10.174232,-75.963773 c 0.8321521,-3.060374 3.8041008,-4.919689 6.6338143,-4.150256 2.82971346,0.769432 4.45092276,3.877681 3.61877075,6.938056 -0.83215201,3.060374 -3.80410075,4.919689 -6.63381425,4.150257 -2.8297135,-0.769433 -4.4509228,-3.877682 -3.6187708,-6.938057 z"
       copytype="single_stretched"
       prop_scale="-2.13863"
       scale_y_rel="false"
       spacing="0"
       normal_offset="0"
       tang_offset="0"
       prop_units="false"
       vertical_pattern="false"
       fuse_tolerance="0"
       lpeversion="0"
       hide_knot="false" />
    <inkscape:path-effect
       effect="skeletal"
       id="path-effect1329-6"
       is_visible="true"
       pattern="M 0,5 C 0,2.24 2.24,0 5,0 7.76,0 10,2.24 10,5 10,7.76 7.76,10 5,10 2.24,10 0,7.76 0,5 Z"
       copytype="single_stretched"
       prop_scale="-1.309096"
       scale_y_rel="false"
       spacing="0"
       normal_offset="0"
       tang_offset="0"
       prop_units="false"
       vertical_pattern="false"
       fuse_tolerance="0"
       lpeversion="0"
       hide_knot="false" />
    <inkscape:path-effect
       effect="skeletal"
       id="path-effect1233-29"
       is_visible="true"
       pattern="m -185.16032,93.480591 c 0,-2.76 2.24,-5 5,-5 2.76,0 5,2.24 5,5 0,2.76 -2.24,5 -5,5 -2.76,0 -5,-2.24 -5,-5 z"
       copytype="single_stretched"
       prop_scale="-2.13863"
       scale_y_rel="false"
       spacing="0"
       normal_offset="0"
       tang_offset="0"
       prop_units="false"
       vertical_pattern="false"
       fuse_tolerance="0"
       lpeversion="0"
       hide_knot="false" />
    <inkscape:path-effect
       effect="skeletal"
       id="path-effect1233-2-1"
       is_visible="true"
       pattern="m 520.95184,93.480591 c 0,-2.76 -2.26458,-5 -5.05486,-5 -2.79029,0 -5.05487,2.24 -5.05487,5 0,2.76 2.26458,5 5.05487,5 2.79028,0 5.05486,-2.24 5.05486,-5 z"
       copytype="single_stretched"
       prop_scale="-2.13863"
       scale_y_rel="false"
       spacing="0"
       normal_offset="0"
       tang_offset="0"
       prop_units="false"
       vertical_pattern="false"
       fuse_tolerance="0"
       lpeversion="0"
       hide_knot="false" />
    <inkscape:path-effect
       effect="skeletal"
       id="path-effect1352-2"
       is_visible="true"
       pattern="m -180.51827,60.414801 c 0,-3.023737 2.24,-5.477785 5,-5.477785 2.76,0 5,2.454048 5,5.477785 0,3.023736 -2.24,5.477783 -5,5.477783 -2.76,0 -5,-2.454047 -5,-5.477783 z"
       copytype="single_stretched"
       prop_scale="-1.9864296"
       scale_y_rel="false"
       spacing="0"
       normal_offset="0"
       tang_offset="0"
       prop_units="false"
       vertical_pattern="false"
       fuse_tolerance="0"
       lpeversion="0"
       hide_knot="false" />
    <inkscape:path-effect
       effect="skeletal"
       id="path-effect1271-7"
       is_visible="true"
       pattern="m -193.2118,16.231629 c 0.83215,-3.060374 3.8041,-4.919689 6.63381,-4.150256 2.82972,0.769432 4.45093,3.877681 3.61877,6.938056 -0.83215,3.060374 -3.8041,4.919689 -6.63381,4.150257 -2.82971,-0.769433 -4.45092,-3.877682 -3.61877,-6.938057 z"
       copytype="single_stretched"
       prop_scale="-2.13863"
       scale_y_rel="false"
       spacing="0"
       normal_offset="0"
       tang_offset="0"
       prop_units="false"
       vertical_pattern="false"
       fuse_tolerance="0"
       lpeversion="0"
       hide_knot="false" />
    <inkscape:path-effect
       effect="skeletal"
       id="path-effect1275-0"
       is_visible="true"
       pattern="m -193.2118,16.231629 c 0.83215,-3.060374 3.8041,-4.919689 6.63381,-4.150256 2.82972,0.769432 4.45093,3.877681 3.61877,6.938056 -0.83215,3.060374 -3.8041,4.919689 -6.63381,4.150257 -2.82971,-0.769433 -4.45092,-3.877682 -3.61877,-6.938057 z"
       copytype="single_stretched"
       prop_scale="-2.13863"
       scale_y_rel="false"
       spacing="0"
       normal_offset="0"
       tang_offset="0"
       prop_units="false"
       vertical_pattern="false"
       fuse_tolerance="0"
       lpeversion="0"
       hide_knot="false" />
    <inkscape:path-effect
       effect="skeletal"
       id="path-effect1329-9"
       is_visible="true"
       pattern="m -183.03757,97.195402 c 0,-2.76 2.24,-5 5,-5 2.76,0 5,2.24 5,5 0,2.76 -2.24,4.999998 -5,4.999998 -2.76,0 -5,-2.239998 -5,-4.999998 z"
       copytype="single_stretched"
       prop_scale="-1.309096"
       scale_y_rel="false"
       spacing="0"
       normal_offset="0"
       tang_offset="0"
       prop_units="false"
       vertical_pattern="false"
       fuse_tolerance="0"
       lpeversion="0"
       hide_knot="false" />
    <linearGradient
       inkscape:collect="always"
       xlink:href="#linearGradient1365"
       id="linearGradient1047"
       gradientUnits="userSpaceOnUse"
       x1="325.13416"
       y1="71.634979"
       x2="375.54941"
       y2="69.866028"
       gradientTransform="translate(-185.16032,88.480591)" />
    <linearGradient
       inkscape:collect="always"
       xlink:href="#linearGradient1365"
       id="linearGradient1049"
       gradientUnits="userSpaceOnUse"
       x1="325.13416"
       y1="71.634979"
       x2="375.54941"
       y2="69.866028"
       gradientTransform="matrix(-1.0109725,0,0,1,520.95184,88.480591)" />
    <linearGradient
       inkscape:collect="always"
       xlink:href="#linearGradient1301"
       id="linearGradient1061"
       gradientUnits="userSpaceOnUse"
       x1="322.30383"
       y1="7.5987659"
       x2="376.78769"
       y2="2.9994793"
       gradientTransform="matrix(3.8749928,1.0536564,-1.139544,4.1908585,-1215.4012,-264.7303)" />
  </defs>
  <sodipodi:namedview
     id="base"
     pagecolor="#ffffff"
     bordercolor="#666666"
     borderopacity="1.0"
     inkscape:pageopacity="0.0"
     inkscape:pageshadow="2"
     inkscape:zoom="2.6230563"
     inkscape:cx="159.35609"
     inkscape:cy="141.05683"
     inkscape:document-units="mm"
     inkscape:current-layer="layer1"
     showgrid="false"
     fit-margin-top="0.5"
     fit-margin-left="0.5"
     fit-margin-bottom="0.5"
     fit-margin-right="0.5"
     inkscape:window-width="1920"
     inkscape:window-height="1047"
     inkscape:window-x="-9"
     inkscape:window-y="-9"
     inkscape:window-maximized="1"
     inkscape:pagecheckerboard="0"
     lock-margins="true" />
  <metadata
     id="metadata5">
    <rdf:RDF>
      <cc:Work
         rdf:about="">
        <dc:format>image/svg+xml</dc:format>
        <dc:type
           rdf:resource="http://purl.org/dc/dcmitype/StillImage" />
      </cc:Work>
    </rdf:RDF>
  </metadata>
  <g
     inkscape:label="Layer 1"
     inkscape:groupmode="layer"
     id="layer1"
     transform="translate(-129.87062,-80.730699)">
    <path
       style="color:#000000;fill:#333333;stroke-width:113.386;stroke-linecap:round;-inkscape-stroke:none;filter:url(#filter2140)"
       d="m 113.36133,19.027344 c -3.8428,0.01916 -7.20473,1.130705 -9.63086,3.220703 -6.521203,5.620349 -7.537809,16.580738 -5.910158,27.943359 -12.974307,2.923436 -24.001797,7.049049 -32.964843,11.40625 -18.080126,8.368358 -29.733434,19.463439 -35.220703,27.88086 -3.602318,5.525932 -5.599486,11.426864 -4.675782,17.234374 -2.652947,2.66078 -4.554416,6.29148 -5.451172,11.12695 -2.014299,10.86147 2.129384,28.44478 16.228516,45.58204 -5.624055,11.34473 -9.527838,26.10974 -8.820312,43.74804 0.801411,13.91434 4.604898,27.9968 11.722656,41.00391 1.31966,2.37983 2.710911,4.69816 4.169922,6.94922 5.866015,9.05052 12.506223,16.54326 19.365234,22.59961 19.198262,16.77921 38.466612,24.78197 52.910152,28.35351 6.99731,1.85773 13.287,2.53406 18.46485,2.66992 1.07154,0.14372 2.00465,0.19798 2.68164,0.10547 5.67564,0.0754 13.09676,-0.46131 21.50976,-2.66601 14.53852,-3.54611 33.95625,-11.51945 53.32618,-28.29493 6.8234,-5.96709 13.44419,-13.34921 19.32226,-22.26562 1.55392,-2.35714 3.03448,-4.78765 4.43555,-7.28906 7.19357,-13.0095 11.0544,-27.13502 11.88476,-41.11524 0.69358,-16.7799 -2.79952,-30.95369 -7.98242,-42.06054 6.48686,-7.35017 9.87701,-15.86008 5.61328,-24.67188 1.02131,-1.92186 1.80284,-4.14101 2.29297,-6.70508 3.1872,-16.67308 -8.32926,-48.20112 -45.67969,-70.296872 C 184.62734,54.329991 166.10531,48.557576 147.00586,46.714844 138.55281,27.408174 124.0796,18.97389 113.36133,19.027344 Z m 42.91601,186.874996 c 2.08591,1.23517 2.9724,1.91832 2.62696,2.25586 -0.79126,-0.15392 -1.64938,-0.96285 -2.62696,-2.25586 z m -34.03711,3.95118 c -0.5519,1.39386 -1.06853,2.38691 -1.61328,2.8125 -0.45483,0.18202 0.0894,-0.58062 1.50977,-2.63477 0.0298,-0.0594 0.0696,-0.11823 0.10351,-0.17773 z"
       id="path1231-4"
       transform="matrix(0.26458333,0,0,0.26458333,129.87062,80.730699)" />
    <path
       style="color:#000000;fill:url(#linearGradient1047);stroke-width:30;stroke-linecap:round;-inkscape-stroke:none"
       d="m 152.35652,115.53787 c -2.94176,-1.8255 -8.57651,-0.0396 -12.83032,8.03318 0,0 0,0 0,0 -1.59525,3.05057 -2.72934,7.0988 -2.5338,11.97353 0.21204,3.6815 1.21806,7.40735 3.1013,10.84882 0.34915,0.62966 0.71729,1.24276 1.10332,1.83835 1.55205,2.39462 3.30913,4.3775 5.12391,5.97991 5.07954,4.4395 10.17722,6.55675 13.99874,7.50172 2.20906,0.58648 4.15788,0.7314 5.6497,0.71458 1.19996,0.16517 5.28548,-1.29301 5.84566,-1.60481 0.86132,-0.4794 1.47454,-1.24908 1.56242,-2.5905 0.0896,-1.3674 -0.3987,-2.93299 -1.04273,-4.30705 -0.82195,-1.85245 -2.04788,-3.60588 -3.44211,-5.41978 -2.3782,-3.12697 -5.48112,-6.13944 -7.68708,-9.05352 -0.77087,-1.00204 -1.5142,-1.9739 -2.0758,-2.84104 -0.1424,-0.21987 -0.27365,-0.43359 -0.39334,-0.6424 -0.62355,-1.04253 -1.17554,-2.08695 -1.56562,-3.05618 -0.59657,-1.29209 -0.93767,-3.13997 -1.22241,-4.97517 0,0 0,0 0,0 -0.76662,-5.33856 -0.40721,-10.42343 -3.59184,-12.39964 z"
       id="path1231-0" />
    <path
       style="color:#000000;fill:url(#linearGradient1049);stroke-width:30.1641;stroke-linecap:round;-inkscape-stroke:none"
       d="m 160.05958,160.82316 c -0.85986,-0.48385 -1.46917,-1.25868 -1.54727,-2.605 -0.0796,-1.37297 0.42218,-2.93976 1.07656,-4.31252 0.83847,-1.85605 2.08324,-3.61202 3.50014,-5.4288 2.36964,-3.06984 5.44522,-5.99887 7.81485,-9.06871 0.77385,-0.99103 1.52028,-1.95155 2.08618,-2.8084 0.1525,-0.2309 0.29251,-0.45494 0.41956,-0.6736 0.62799,-1.03658 1.18407,-2.0702 1.57377,-3.02681 0.5986,-1.27336 0.93783,-3.11165 1.21894,-4.94105 0,0 0,0 0,0 0.7569,-5.34342 0.35126,-10.42665 3.52929,-12.4204 2.92974,-1.83799 8.58249,-0.0802 12.86915,8.01241 0,1e-5 0,1e-5 0,1e-5 1.60517,3.05415 2.74699,7.11381 2.54471,12.00765 -0.2197,3.69893 -1.24105,7.43609 -3.14435,10.87818 -0.3707,0.66184 -0.76227,1.30512 -1.17342,1.92878 -1.55524,2.35914 -3.30728,4.31214 -5.11264,5.89094 -5.12496,4.43851 -10.26228,6.54827 -14.10893,7.48651 -2.22594,0.58333 -4.18974,0.72551 -5.69142,0.70557 -1.21376,0.16586 -5.29586,-1.31006 -5.85512,-1.62476 z"
       id="path1231-9-2" />
    <path
       style="color:#000000;fill:#aa4400;stroke-width:31.4007;stroke-linecap:round;-inkscape-stroke:none"
       d="m 160.89029,111.3241 c -2.12232,0.36666 -3.85833,2.49012 -4.90444,5.96536 -1.03468,3.43725 -1.43287,8.40829 -0.44867,14.25789 0.30366,3.00661 1.51146,7.2931 5.02636,12.20167 0.82775,1.37887 2.74546,3.00406 5.89322,4.64833 2.16318,0.9954 4.62504,1.30864 7.31815,0.88565 0.74492,-0.117 1.50521,-0.28997 2.27913,-0.51905 3.22419,-1.40979 5.30193,-2.99142 6.29089,-4.56417 1.3877,-1.85916 2.25154,-3.49743 2.68997,-4.85084 1.2545,-3.59663 1.5972,-6.81903 1.41479,-9.51398 0,-1e-5 0,-1e-5 0,-1e-5 -0.12393,-3.49251 -0.94883,-6.79347 -2.24896,-9.67404 -1.43074,-3.45988 -4.03173,-6.31343 -6.80607,-8.0921 -3.34082,-2.01974 -6.26964,-1.8896 -8.07061,-1.17864 -1.82842,0.7218 -2.53096,2.01372 -2.59619,3.24402 -0.0651,1.22736 0.46514,2.53837 0.83782,3.76228 0.38341,1.25918 0.66806,2.58812 0.18733,3.5188 -0.15499,0.91334 -0.63063,1.9735 -0.76174,3.34497 -0.20125,1.26071 -0.52324,2.53871 -0.9072,4.02825 0,0 0,0 0,0 -0.38216,1.2143 -0.6674,2.15152 -1.00098,2.49739 -0.15056,0.10127 -0.0116,-0.10574 0.36833,-0.71555 0.2191,-0.61932 1.33476,-1.33827 3.38427,-2.33516 0.53768,-0.14601 1.05495,-0.25844 1.5531,-0.33637 1.8011,-0.28174 3.33208,-0.10899 4.6707,0.53118 1.64084,0.99494 2.36286,1.43899 2.17102,1.58122 -0.68542,-0.18576 -1.49514,-2.15545 -2.99171,-4.59659 -2.29988,-4.09605 -4.36444,-7.70395 -6.67432,-10.39497 -2.25201,-2.6236 -4.51943,-4.06781 -6.67419,-3.69554 z"
       id="path1350-3" />
    <path
       id="path1269-5"
       style="color:#000000;fill:url(#linearGradient1061);stroke-width:125.285;stroke-linecap:round;-inkscape-stroke:none"
       d="m 133.5332,46.070312 c -2.46094,0.0037 -4.92464,0.07361 -7.38867,0.210938 -8.00595,0.432155 -15.74259,1.403727 -23.15039,2.828125 -15.240075,2.930408 -28.0064,7.56268 -38.138671,12.488281 -18.080164,8.368366 -29.733434,19.463436 -35.220703,27.88086 -7.225433,9.894986 -8.357636,18.516934 -10.126954,28.361324 -3.008844,16.22423 7.688274,47.44786 44.84961,69.77735 21.976327,12.27787 47.750198,18.26663 73.251958,16.8789 10.26969,-0.50936 20.00919,-1.84881 29.125,-3.77539 12.14834,-2.56747 22.59473,-6.05103 31.18359,-9.58398 18.99889,-7.43271 33.22332,-17.56245 40.45117,-25.5625 9.14299,-12.09902 10.29232,-23.44067 10.64639,-32.93472 C 247.81852,113.10716 238.30355,85.582081 200.95312,63.486328 180.80985,52.188943 157.3223,46.034978 133.5332,46.070312 Z"
       transform="matrix(0.26458333,0,0,0.26458333,129.87062,80.730699)"
       sodipodi:nodetypes="ccscccccsccccc" />
    <path
       style="color:#000000;fill:#803300;stroke-width:30;stroke-linecap:round;-inkscape-stroke:none"
       d="m 157.31624,86.616981 c -2.63516,2.270682 -1.87454,7.836572 -0.41074,12.04475 0.0229,0.06595 0.0461,0.131621 0.0693,0.197007 0.92196,2.521042 2.24104,4.992542 3.993,6.742952 1.74083,1.7393 3.63929,2.4711 5.35449,1.90434 1.66141,-0.54898 2.86489,-2.22342 3.46109,-4.3755 0.59611,-2.15181 0.67221,-5.14353 -0.42941,-8.518777 -0.0348,-0.103881 -0.0707,-0.207671 -0.10771,-0.311343 -2.84037,-7.957474 -9.36229,-9.896017 -11.93004,-7.683429 z"
       id="path1327-2" />
  </g>
</svg>
